# xmcd
#
# Track frame offsets: 
#        150
#        23429
#        37212
#        53587
#        67838
#        85529
#        107533
#        129244
#        145695
#        171610
#        191938
#        218184
#        232347
#
# Disc length: 3305 seconds
#
# Revision: 0
# Processed by: cddbd v1.5.2PL0 Copyright (c) Steve Scherf et al.
# Submitted via: ExactAudioCopy v1.2
#
DISCID=b20ce70d
DTITLE=The Second Cousins - Bloody Tears
DYEAR=2018
DGENRE=Blues
TTITLE0=31st of July
TTITLE1=Train Down South
TTITLE2=I'm Scared
TTITLE3=Mean and Evil
TTITLE4=I Ain't Got Enough
TTITLE5=Done Change My Way of Living
TTITLE6=Sailed to Dixieland
TTITLE7=Handle with Care
TTITLE8=Bound to Go
TTITLE9=Boogie Fever
TTITLE10=Believe Me
TTITLE11=Special Kind of Karma
TTITLE12=Bloody Tears
EXTD=
EXTT0=
EXTT1=
EXTT2=
EXTT3=
EXTT4=
EXTT5=
EXTT6=
EXTT7=
EXTT8=
EXTT9=
EXTT10=
EXTT11=
EXTT12=
PLAYORDER=
